HIERARCHY
ROOT Hips
{
	OFFSET 0.00000 0.00000 0.00000
	CHANNELS 6 Xposition Yposition Zposition Zrotation Yrotation Xrotation 
	JOINT LHipJoint
	{
		OFFSET 0 0 0
		CHANNELS 3 Zrotation Yrotation Xrotation
		JOINT LeftHip
		{
			OFFSET 1.84395 -1.68683 0.74144
			CHANNELS 3 Zrotation Yrotation Xrotation
			JOINT LeftKnee
			{
				OFFSET 2.27037 -6.23779 0.00000
				CHANNELS 3 Zrotation Yrotation Xrotation
				JOINT LeftAnkle
				{
					OFFSET 2.56918 -7.05877 0.00000
					CHANNELS 3 Zrotation Yrotation Xrotation
					JOINT LeftToe
					{
						OFFSET 0.22276 -0.61202 1.71784
						CHANNELS 3 Zrotation Yrotation Xrotation
						End Site
						{
							OFFSET 0.00000 -0.00000 0.91613
						}
					}
				}
			}
		}
	}
	JOINT RHipJoint
	{
		OFFSET 0 0 0
		CHANNELS 3 Zrotation Yrotation Xrotation
		JOINT RightHip
		{
			OFFSET -1.76833 -1.68684 0.74144
			CHANNELS 3 Zrotation Yrotation Xrotation
			JOINT RightKnee
			{
				OFFSET -2.49360 -6.85110 0.00000
				CHANNELS 3 Zrotation Yrotation Xrotation
				JOINT RightAnkle
				{
					OFFSET -2.55538 -7.02085 0.00000
					CHANNELS 3 Zrotation Yrotation Xrotation
					JOINT RightToe
					{
						OFFSET -0.21516 -0.59115 1.68050
						CHANNELS 3 Zrotation Yrotation Xrotation
						End Site
						{
							OFFSET -0.00000 -0.00000 0.89604
						}
					}
				}
			}
		}
	}
	JOINT lowerback
	{
		OFFSET 0 0 0
		CHANNELS 3 Zrotation Yrotation Xrotation
		JOINT Chest
		{
			OFFSET 0.06382 1.72312 -0.19613
			CHANNELS 3 Zrotation Yrotation Xrotation
			JOINT Chest2
			{
				OFFSET -0.00055 1.73507 0.23859
				CHANNELS 3 Zrotation Yrotation Xrotation
				JOINT lowerneck
				{
					OFFSET 0 0 0
					CHANNELS 3 Zrotation Yrotation Xrotation
					JOINT Neck
					{
						OFFSET 0.03638 1.65562 0.09633
						CHANNELS 3 Zrotation Yrotation Xrotation
						JOINT Head
						{
							OFFSET 0.06388 1.62807 -0.32386
							CHANNELS 3 Zrotation Yrotation Xrotation
							End Site
							{
								OFFSET 0.00995 1.67644 -0.12021
							}
						}
					}
				}
				JOINT LeftCollar
				{
					OFFSET 0 0 0
					CHANNELS 3 Zrotation Yrotation Xrotation
					JOINT LeftShoulder
					{
						OFFSET 3.09648 1.42991 0.28122
CHANNELS 3 Zrotation Xrotation Yrotation
						JOINT LeftElbow
						{
OFFSET 0 -5.118780 -0.000000
CHANNELS 3 Zrotation Xrotation Yrotation
							JOINT LeftWrist
							{
OFFSET 0 -3.599710 0.000000
CHANNELS 3 Zrotation Xrotation Yrotation
								JOINT lhand
								{
									OFFSET 0 0 0
CHANNELS 3 Zrotation Xrotation Yrotation
									JOINT LFingers
									{
OFFSET 0 -0.628770 0.000000
CHANNELS 3 Zrotation Xrotation Yrotation
										End Site
										{
OFFSET 0 -0.506930 0.000000
										}
									}
								}
								JOINT LThumb
								{
OFFSET 0 0.000000 0.000000
CHANNELS 3 Zrotation Xrotation Yrotation
									End Site
									{
OFFSET 0 -0.514670 0.514670
									}
								}
							}
						}
					}
				}
				JOINT RightCollar
				{
					OFFSET 0 0 0
					CHANNELS 3 Zrotation Yrotation Xrotation
					JOINT RightShoulder
					{
						OFFSET -3.33565 1.14597 0.05047
CHANNELS 3 Zrotation Xrotation Yrotation
						JOINT RightElbow
						{
OFFSET 0 -5.490200 0.000000
CHANNELS 3 Zrotation Xrotation Yrotation
							JOINT RightWrist
							{
OFFSET 0 -3.206590 -0.000000
CHANNELS 3 Zrotation Xrotation Yrotation
								JOINT rhand
								{
									OFFSET 0 0 0
CHANNELS 3 Zrotation Xrotation Yrotation
									JOINT RFingers
									{
OFFSET 0 -0.691880 0.000000
CHANNELS 3 Zrotation Xrotation Yrotation
										End Site
										{
OFFSET 0 -0.557810 0.000000
										}
									}
								}
								JOINT RThumb
								{
OFFSET 0 0.000000 0.000000
CHANNELS 3 Zrotation Xrotation Yrotation
									End Site
									{
OFFSET 0 -0.566330 0.566330
									}
								}
							}
						}
					}
				}
			}
		}
	}
}
MOTION
Frames: 7
Frame Time: 0.008333333333333333
-0.839663 17.710041 8.736189 -8.747204 -19.914516 37.789210 0.000000 0.000000 0.000000 -50.985824 51.244433 -64.665904 0.078806 -1.810277 -4.981542 1.693721 -15.627311 34.406701 7.660672 15.863863 51.330975 0.000000 0.000000 0.000000 7.168804 42.308694 -30.343249 -0.102917 -2.068460 5.694852 0.746904 -15.661021 -10.337217 -0.012265 0.711302 -1.954797 10.780391 -3.183092 21.333866 6.391742 -1.112119 2.484872 1.291621 -0.841305 -9.303824 -3.396403 -5.118874 1.328525 11.055502 -5.676191 -20.950269 4.429854 -3.525306 -6.070023 0.000000 0.000000 0.000000 13.986620 -41.449880 -58.003786 20.801051 -31.595335 5.945360 26.603961 -10.286501 23.858301 0.000000 0.000000 0.000000 -7.125000 0.000000 0.000000 -1.634170 3.670192 -1.526881 0.000000 0.000000 0.000000 -10.930411 -58.137124 82.057270 -20.677681 -31.450142 -5.880839 1.936070 20.196929 27.584421 0.000000 0.000000 0.000000 7.125000 0.000000 0.000000 33.591135 54.207218 -8.315699
-0.839203 17.707800 8.730057 -8.893321 -19.547658 37.553467 0.000000 0.000000 0.000000 -53.476484 52.420849 -67.557464 0.064929 -1.643627 -4.521783 2.048660 -16.175346 36.788594 7.682234 15.880504 51.409744 0.000000 0.000000 0.000000 7.619663 42.492241 -29.780624 -0.098605 -2.025274 5.575443 0.792151 -16.102030 -10.598859 -0.006827 0.534502 -1.468732 10.817722 -3.018658 21.165254 6.250339 -0.909337 2.330705 1.052063 -0.753765 -9.377377 -3.616584 -5.137226 0.852209 11.072435 -5.751647 -19.797087 4.405801 -3.502262 -5.609280 0.000000 0.000000 0.000000 13.376074 -41.174513 -59.000304 20.514874 -31.257645 5.796199 26.566170 -10.131756 23.735058 0.000000 0.000000 0.000000 -7.125000 0.000000 0.000000 -1.640887 3.810081 -1.528930 0.000000 0.000000 0.000000 -10.428456 -57.843915 83.011804 -20.432658 -31.159969 -5.753550 2.185946 19.717518 27.624912 0.000000 0.000000 0.000000 7.125000 0.000000 0.000000 33.851959 54.194654 -8.381575
-0.846726 17.717250 8.725458 -8.970707 -19.564285 37.292618 0.000000 0.000000 0.000000 -56.791915 53.503735 -71.057455 0.051948 -1.470548 -4.044616 2.458191 -16.853575 39.369114 7.603621 15.819768 51.121989 0.000000 0.000000 0.000000 7.935131 42.763303 -29.204797 -0.092321 -1.959262 5.393128 0.832639 -16.443881 -10.636543 -0.004874 0.451152 -1.239705 10.375350 -2.737436 21.129095 5.903527 -0.625067 1.869866 0.845548 -0.628980 -9.860294 -3.972608 -4.786714 0.978502 10.189808 -5.481638 -17.990894 4.109558 -3.227910 -5.113534 0.000000 0.000000 0.000000 12.981393 -40.550723 -59.654964 20.046463 -30.698046 5.555150 25.931608 -10.075355 24.053703 0.000000 0.000000 0.000000 -7.125000 0.000000 0.000000 -2.072127 3.598287 -1.939523 0.000000 0.000000 0.000000 -8.944843 -56.247644 84.032651 -19.995440 -30.636558 -5.529166 2.419777 19.392562 27.928722 0.000000 0.000000 0.000000 7.125000 0.000000 0.000000 34.298822 54.404017 -8.698850
-0.857685 17.734811 8.716110 -9.055249 -20.079382 36.901001 0.000000 0.000000 0.000000 -60.980655 54.746134 -75.294648 0.039084 -1.275832 -3.508063 2.975754 -17.430608 42.177508 7.515749 15.751216 50.798971 0.000000 0.000000 0.000000 8.589432 42.740910 -28.494960 -0.089117 -1.925160 5.298812 0.804813 -16.128877 -10.237220 -0.010991 0.675490 -1.856294 9.833379 -2.333389 20.966802 4.964670 -0.298122 1.529850 0.008444 -0.484012 -10.132656 -3.999372 -4.424648 -0.629594 8.151449 -5.369674 -13.423427 3.339346 -2.922001 -3.592721 0.000000 0.000000 0.000000 12.496074 -40.476768 -59.273488 19.265378 -29.746437 5.162194 23.389402 -8.614625 24.086134 0.000000 0.000000 0.000000 -7.125000 0.000000 0.000000 -3.636965 4.055436 -3.377798 0.000000 0.000000 0.000000 -6.467643 -53.942797 84.353129 -19.315649 -29.808910 -5.186863 1.992585 19.716414 28.421741 0.000000 0.000000 0.000000 7.125000 0.000000 0.000000 34.286237 54.894520 -9.127085
-0.888671 17.761223 8.702237 -9.233717 -21.374875 36.101646 0.000000 0.000000 0.000000 -66.287482 56.712711 -80.540998 0.025470 -1.028622 -2.827615 3.508425 -17.998643 44.837056 7.355214 15.623831 50.205415 0.000000 0.000000 0.000000 9.653731 42.959666 -27.202268 -0.094679 -1.983937 5.461224 0.704577 -15.174490 -9.820950 -0.011682 0.697344 -1.916315 8.545370 -2.120737 21.046583 3.417545 -0.459470 1.516315 -0.943840 -0.536329 -10.197401 -3.796937 -3.435183 -1.611503 5.006108 -4.371554 -9.056507 2.339163 -2.234106 -2.404446 0.000000 0.000000 0.000000 13.206125 -41.834340 -55.292950 17.216200 -27.138254 4.187492 21.764873 -6.441818 25.127321 0.000000 0.000000 0.000000 -7.125000 0.000000 0.000000 -4.747875 3.264364 -4.485017 0.000000 0.000000 0.000000 -3.366455 -52.541253 86.883805 -18.968642 -29.379654 -5.015507 1.356291 20.879204 27.666038 0.000000 0.000000 0.000000 7.125000 0.000000 0.000000 33.117997 54.382955 -8.329480
-0.941489 17.781862 8.679822 -9.914361 -23.112415 35.686709 0.000000 0.000000 0.000000 -72.886061 58.460757 -87.654518 0.013187 -0.739675 -2.032778 4.154272 -18.222867 47.524097 7.341331 15.612683 50.153737 0.000000 0.000000 0.000000 11.585441 42.395498 -26.405206 -0.109393 -2.132065 5.870935 0.480740 -12.700463 -8.621217 -0.018624 0.880758 -2.420841 6.806809 -1.954774 20.696850 1.444211 -0.886122 1.659914 -2.032775 -0.692345 -9.876037 -2.295781 -1.826657 -1.986960 1.191682 -2.407226 -4.803703 0.757303 -1.193680 -1.100805 0.000000 0.000000 0.000000 14.511759 -44.676563 -46.757651 14.065007 -22.821846 2.856988 22.504201 -1.284883 23.229129 0.000000 0.000000 0.000000 -7.125000 0.000000 0.000000 -4.091234 5.116363 -3.721814 0.000000 0.000000 0.000000 0.846494 -51.409346 89.725792 -19.501180 -30.035096 -5.280164 2.020441 20.880383 25.983719 0.000000 0.000000 0.000000 7.125000 0.000000 0.000000 32.512635 52.844010 -6.857821
-0.988379 17.786457 8.627408 -11.358254 -24.597992 35.651181 0.000000 0.000000 0.000000 -79.578860 59.683518 -95.860734 0.004219 -0.417854 -1.148133 4.742114 -18.201120 49.684961 7.374102 15.638981 50.275522 0.000000 0.000000 0.000000 14.671202 41.288026 -25.802092 -0.128644 -2.312086 6.369061 0.233932 -9.268218 -7.254895 -0.019462 0.900325 -2.474712 5.647739 -1.854605 20.052010 -0.581929 -1.281618 2.012961 -3.505535 -0.852718 -9.183700 -0.210131 0.216658 -1.324462 -2.849145 0.270864 -1.106506 -0.830153 0.134928 -0.114136 0.000000 0.000000 0.000000 16.541035 -48.192950 -33.500413 11.119203 -18.470234 1.813915 22.664636 8.132172 18.334641 0.000000 0.000000 0.000000 -7.125000 0.000000 0.000000 -3.543447 10.255985 -2.863171 0.000000 0.000000 0.000000 3.979282 -50.758814 92.844712 -21.159529 -32.013851 -6.134435 2.452687 18.253812 26.658837 0.000000 0.000000 0.000000 7.125000 0.000000 0.000000 33.384724 53.337031 -7.504429
